<svg width="16" height="16" viewBox="0 0 16 16" fill="none" xmlns="http://www.w3.org/2000/svg">
<path fill-rule="evenodd" clip-rule="evenodd" d="M7.99992 1.33337C4.31802 1.33337 1.33325 4.31814 1.33325 8.00004C1.33325 11.6819 4.31802 14.6667 7.99992 14.6667C11.6818 14.6667 14.6666 11.6819 14.6666 8.00004C14.6666 6.23193 13.9642 4.53624 12.714 3.286C11.4637 2.03575 9.76803 1.33337 7.99992 1.33337ZM7.99992 13.3334C5.0544 13.3334 2.66659 10.9456 2.66659 8.00004C2.66659 5.05452 5.0544 2.66671 7.99992 2.66671C10.9454 2.66671 13.3333 5.05452 13.3333 8.00004C13.3333 9.41453 12.7713 10.7711 11.7712 11.7713C10.771 12.7715 9.41441 13.3334 7.99992 13.3334ZM9.99992 9.33337C10.2987 9.34897 10.5713 9.16362 10.6666 8.88004C10.7223 8.70766 10.7055 8.52002 10.62 8.36031C10.5344 8.2006 10.3876 8.08256 10.2133 8.03337L8.66658 7.52004V4.66671C8.66658 4.29852 8.36811 4.00004 7.99992 4.00004C7.63173 4.00004 7.33325 4.29852 7.33325 4.66671V8.00004C7.33251 8.28665 7.51504 8.54166 7.78659 8.63337L9.78658 9.30004C9.85595 9.32036 9.92766 9.33156 9.99992 9.33337Z" fill="#231F20"/>
</svg>
